<svg width="87" height="23" viewBox="0 0 87 23" fill="none" xmlns="http://www.w3.org/2000/svg">
<path d="M11.068 22.252C4.74 22.252 0.204 17.996 0.204 11.724C0.204 5.452 4.74 1.196 11.068 1.196C11.992 1.196 13.028 1.28 14.008 1.448V4.808C13.112 4.64 12.188 4.528 11.292 4.528C6.896 4.528 3.984 7.384 3.984 11.724C3.984 16.036 6.896 18.92 11.292 18.92C12.188 18.92 13.112 18.808 14.008 18.64V22C13.028 22.168 11.992 22.252 11.068 22.252ZM22.1173 22.28C18.0853 22.28 14.7533 19.116 14.7533 14.608C14.7533 10.044 18.0853 6.908 22.1173 6.908C24.0493 6.908 25.8413 7.636 26.9053 8.98L26.9333 7.188H30.0133V22H26.9333L26.9053 20.208C25.8413 21.552 24.0493 22.28 22.1173 22.28ZM18.2253 14.608C18.2253 17.268 20.0733 19.088 22.5653 19.088C24.9173 19.088 26.7933 17.436 26.7933 14.608C26.7933 11.752 24.9173 10.1 22.5653 10.1C20.0733 10.1 18.2253 11.92 18.2253 14.608ZM32.5221 12.2C32.5221 8.728 34.2581 7.188 37.4221 7.188H39.2141V10.324H37.7581C36.4981 10.324 35.9941 10.828 35.9941 12.116V22H32.5221V12.2ZM48.5222 22.28C46.5902 22.28 44.7702 21.524 43.7342 20.208L43.7062 22H40.6262V0.384H44.0982V5.144C44.0982 6.292 44.0702 7.524 44.0142 8.644C45.0782 7.524 46.7582 6.908 48.5222 6.908C52.5262 6.908 55.8862 10.044 55.8862 14.608C55.8862 19.116 52.5262 22.28 48.5222 22.28ZM43.8462 14.608C43.8462 17.436 45.6942 19.088 48.0742 19.088C50.5662 19.088 52.3862 17.268 52.3862 14.608C52.3862 11.92 50.5662 10.1 48.0742 10.1C45.6942 10.1 43.8462 11.752 43.8462 14.608ZM64.751 22.392C60.411 22.392 56.995 19.116 56.995 14.608C56.995 10.1 60.411 6.852 64.751 6.852C69.091 6.852 72.507 10.1 72.507 14.608C72.507 19.116 69.091 22.392 64.751 22.392ZM60.467 14.608C60.467 17.268 62.315 19.116 64.751 19.116C67.187 19.116 69.035 17.268 69.035 14.608C69.035 11.948 67.187 10.1 64.751 10.1C62.315 10.1 60.467 11.948 60.467 14.608ZM74.2157 13.18C74.2157 9.232 76.5117 6.852 80.3757 6.852C84.2117 6.852 86.5357 9.232 86.5357 13.18V22H83.0637V13.292C83.0637 11.22 82.0837 10.1 80.3757 10.1C78.6397 10.1 77.6877 11.22 77.6877 13.292V22H74.2157V13.18Z" fill="white"/>
</svg>
